<svg width="105" height="123" xmlns="http://www.w3.org/2000/svg" xmlns:xlink="http://www.w3.org/1999/xlink" xml:space="preserve" overflow="hidden"><defs><clipPath id="clip0"><rect x="597" y="270" width="105" height="123"/></clipPath></defs><g clip-path="url(#clip0)" transform="translate(-597 -270)"><path d="M608.153 307.257 691.506 307.257C692.176 307.23 692.846 307.284 693.503 307.417 694.589 307.656 695.585 308.195 696.379 308.974 697.3 309.858 697.88 311.039 698.016 312.309 698.041 312.789 698.021 313.271 697.956 313.747L690.857 387.285 690.857 387.285 690.857 387.415 690.857 387.694 690.857 387.694C690.81 387.998 690.743 388.298 690.657 388.593L690.657 388.593 690.657 388.653 690.657 388.653C689.885 391.03 687.695 392.661 685.196 392.717L614.294 392.717C613.872 392.697 613.454 392.633 613.046 392.527 612.644 392.407 612.256 392.246 611.887 392.048L611.887 392.048C610.12 391.031 608.969 389.208 608.812 387.175L601.823 313.797C601.743 313.248 601.723 312.693 601.763 312.139 601.902 310.887 602.479 309.724 603.39 308.854 604.216 308.052 605.256 307.504 606.386 307.277 606.976 307.174 607.574 307.13 608.173 307.147ZM602.641 278.94 634.064 278.94 634.064 276.144 634.064 276.144C634.059 276.055 634.059 275.965 634.064 275.875 634.126 274.37 634.754 272.944 635.821 271.881L635.821 271.881C636.941 270.775 638.451 270.155 640.024 270.153L659.365 270.153 659.664 270.153C662.856 270.313 665.36 272.949 665.356 276.144L665.356 276.144 665.356 276.144 665.356 278.94 697.307 278.94 697.697 278.94C700.035 279.131 701.873 281.02 702 283.363 702 283.543 702 283.683 702 283.863L702 293.708C702 295.136 700.842 296.294 699.414 296.294L599.586 296.294C598.169 296.294 597.016 295.154 597 293.738L597 283.663 597 283.663C596.99 283.56 596.99 283.456 597 283.353L597 283.353C597.141 281.19 598.74 279.401 600.874 279.02 601.46 278.943 602.051 278.916 602.641 278.94ZM644.677 331.56C644.946 328.943 647.285 327.04 649.902 327.309 652.147 327.54 653.922 329.315 654.153 331.56L654.153 368.504C653.884 371.121 651.545 373.024 648.928 372.754 646.683 372.523 644.908 370.749 644.677 368.504L644.677 331.56ZM668.371 331.36C668.644 328.869 670.87 327.062 673.364 327.306 675.828 327.284 677.844 329.265 677.867 331.729 677.867 331.74 677.867 331.75 677.867 331.76L675.87 368.703C675.602 371.197 673.373 373.008 670.877 372.757 668.413 372.779 666.397 370.799 666.375 368.334 666.374 368.324 666.374 368.314 666.374 368.304L668.371 331.36ZM621.962 331.76C621.962 329.3 623.956 327.306 626.415 327.306 626.428 327.306 626.442 327.306 626.455 327.306 628.949 327.062 631.175 328.869 631.448 331.36L633.444 368.304C633.439 370.769 631.436 372.763 628.971 372.757 628.961 372.757 628.951 372.757 628.941 372.757 626.446 373.008 624.216 371.197 623.949 368.703L621.952 331.76Z" fill="#CC2222" fill-rule="evenodd"/></g></svg>