<svg width="374" height="374" xmlns="http://www.w3.org/2000/svg" xmlns:xlink="http://www.w3.org/1999/xlink" xml:space="preserve" overflow="hidden"><defs><clipPath id="clip0"><rect x="479" y="173" width="374" height="374"/></clipPath></defs><g clip-path="url(#clip0)" transform="translate(-479 -173)"><path d="M630.038 521.827 630.038 500.25C630.038 494.496 625.004 489.462 619.25 489.462L547.327 489.462C541.573 489.462 536.538 484.427 536.538 478.673L536.538 241.327C536.538 235.573 541.573 230.538 547.327 230.538L619.25 230.538C625.004 230.538 630.038 225.504 630.038 219.75L630.038 198.173C630.038 192.419 625.004 187.385 619.25 187.385L522.154 187.385C506.331 187.385 493.385 200.331 493.385 216.154L493.385 503.846C493.385 519.669 506.331 532.615 522.154 532.615L619.25 532.615C625.004 532.615 630.038 527.581 630.038 521.827Z" fill="#FFFFFF"/><path d="M835.738 367.192C840.054 362.877 840.054 356.404 835.738 352.088L738.642 254.992C734.327 250.677 727.854 250.677 723.538 254.992L708.435 270.096C704.119 274.412 704.119 280.885 708.435 285.2L748.712 325.477C753.027 329.792 750.15 337.704 743.677 337.704L590.481 337.704C584.727 337.704 579.692 342.019 579.692 347.773L579.692 369.35C579.692 375.104 584.727 380.858 590.481 380.858L742.958 380.858C749.431 380.858 752.308 388.769 747.992 393.085L707.715 433.362C703.4 437.677 703.4 444.15 707.715 448.465L722.819 463.569C727.135 467.885 733.608 467.885 737.923 463.569L835.738 367.192Z" fill="#FFFFFF"/></g></svg>